<svg id="visual" viewBox="0 0 960 540" width="960" height="540" xmlns="http://www.w3.org/2000/svg" xmlns:xlink="http://www.w3.org/1999/xlink" version="1.1"><g stroke-width="1" stroke-linejoin="bevel"><path d="M548 217L394 170L351 336Z" fill="#101236" stroke="#101236"></path><path d="M351 336L546 380L548 217Z" fill="#101236" stroke="#101236"></path><path d="M351 336L406 540L546 380Z" fill="#1d174e" stroke="#1d174e"></path><path d="M394 170L187 181L351 336Z" fill="#1a174a" stroke="#1a174a"></path><path d="M351 336L168 398L406 540Z" fill="#201852" stroke="#201852"></path><path d="M547 0L363 0L394 170Z" fill="#0e1131" stroke="#0e1131"></path><path d="M394 170L221 0L187 181Z" fill="#0d0d29" stroke="#0d0d29"></path><path d="M406 540L554 540L546 380Z" fill="#11133a" stroke="#11133a"></path><path d="M546 380L734 198L548 217Z" fill="#101236" stroke="#101236"></path><path d="M734 198L547 0L548 217Z" fill="#11133a" stroke="#11133a"></path><path d="M548 217L547 0L394 170Z" fill="#13143e" stroke="#13143e"></path><path d="M769 386L734 198L546 380Z" fill="#1d174e" stroke="#1d174e"></path><path d="M187 181L168 398L351 336Z" fill="#13143e" stroke="#13143e"></path><path d="M738 540L769 386L546 380Z" fill="#13143e" stroke="#13143e"></path><path d="M363 0L221 0L394 170Z" fill="#11133a" stroke="#11133a"></path><path d="M168 398L159 540L406 540Z" fill="#181646" stroke="#181646"></path><path d="M554 540L738 540L546 380Z" fill="#0e1131" stroke="#0e1131"></path><path d="M734 198L781 0L547 0Z" fill="#201852" stroke="#201852"></path><path d="M960 182L781 0L734 198Z" fill="#11133a" stroke="#11133a"></path><path d="M0 0L0 172L187 181Z" fill="#101236" stroke="#101236"></path><path d="M187 181L0 383L168 398Z" fill="#0e0f2d" stroke="#0e0f2d"></path><path d="M168 398L0 540L159 540Z" fill="#1a174a" stroke="#1a174a"></path><path d="M0 172L0 383L187 181Z" fill="#1a174a" stroke="#1a174a"></path><path d="M960 369L960 182L769 386Z" fill="#0e0f2d" stroke="#0e0f2d"></path><path d="M769 386L960 182L734 198Z" fill="#151542" stroke="#151542"></path><path d="M0 383L0 540L168 398Z" fill="#201852" stroke="#201852"></path><path d="M960 540L960 369L769 386Z" fill="#1a174a" stroke="#1a174a"></path><path d="M221 0L0 0L187 181Z" fill="#101236" stroke="#101236"></path><path d="M738 540L960 540L769 386Z" fill="#0d0d29" stroke="#0d0d29"></path><path d="M960 182L960 0L781 0Z" fill="#151542" stroke="#151542"></path></g></svg>