<svg id="visual" viewBox="0 0 960 540" width="960" height="540" xmlns="http://www.w3.org/2000/svg" xmlns:xlink="http://www.w3.org/1999/xlink" version="1.1"><g stroke-width="1" stroke-linejoin="bevel"><path d="M457.7 283L522.3 360L546.3 303Z" fill="#0d0d2b" stroke="#0d0d2b"></path><path d="M457.7 283L451.7 374L522.3 360Z" fill="#4048d1" stroke="#4048d1"></path><path d="M451.7 374L508.3 426L522.3 360Z" fill="#2e39a5" stroke="#2e39a5"></path><path d="M522.3 360L643 333L546.3 303Z" fill="#1f2b7a" stroke="#1f2b7a"></path><path d="M546.3 303L505.3 183L457.7 283Z" fill="#0d0d2b" stroke="#0d0d2b"></path><path d="M296 359L403.7 420L451.7 374Z" fill="#10163d" stroke="#10163d"></path><path d="M451.7 374L403.7 420L508.3 426Z" fill="#26328f" stroke="#26328f"></path><path d="M666 442L643 333L522.3 360Z" fill="#0d0d2b" stroke="#0d0d2b"></path><path d="M546.3 303L646 270L505.3 183Z" fill="#2e39a5" stroke="#2e39a5"></path><path d="M643 333L646 270L546.3 303Z" fill="#4048d1" stroke="#4048d1"></path><path d="M398.7 179L337 271L457.7 283Z" fill="#5656ff" stroke="#5656ff"></path><path d="M457.7 283L337 271L451.7 374Z" fill="#2e39a5" stroke="#2e39a5"></path><path d="M505.3 183L398.7 179L457.7 283Z" fill="#26328f" stroke="#26328f"></path><path d="M296 359L352 443L403.7 420Z" fill="#4048d1" stroke="#4048d1"></path><path d="M438.7 540L525.3 540L508.3 426Z" fill="#4b4fe8" stroke="#4b4fe8"></path><path d="M337 271L296 359L451.7 374Z" fill="#4048d1" stroke="#4048d1"></path><path d="M623 540L666 442L508.3 426Z" fill="#10163d" stroke="#10163d"></path><path d="M508.3 426L666 442L522.3 360Z" fill="#10163d" stroke="#10163d"></path><path d="M733.7 203L678 177L646 270Z" fill="#10163d" stroke="#10163d"></path><path d="M438.7 540L508.3 426L403.7 420Z" fill="#26328f" stroke="#26328f"></path><path d="M505.3 183L436.7 97L398.7 179Z" fill="#5656ff" stroke="#5656ff"></path><path d="M398.7 179L281 206L337 271Z" fill="#4048d1" stroke="#4048d1"></path><path d="M555.3 85L436.7 97L505.3 183Z" fill="#3641bb" stroke="#3641bb"></path><path d="M755.7 328L646 270L643 333Z" fill="#141d51" stroke="#141d51"></path><path d="M646 270L678 177L505.3 183Z" fill="#26328f" stroke="#26328f"></path><path d="M352 443L438.7 540L403.7 420Z" fill="#141d51" stroke="#141d51"></path><path d="M678 177L555.3 85L505.3 183Z" fill="#3641bb" stroke="#3641bb"></path><path d="M328 126L281 206L398.7 179Z" fill="#2e39a5" stroke="#2e39a5"></path><path d="M337 271L238.3 242L296 359Z" fill="#0d0d2b" stroke="#0d0d2b"></path><path d="M436.7 97L328 126L398.7 179Z" fill="#141d51" stroke="#141d51"></path><path d="M525.3 540L623 540L508.3 426Z" fill="#192465" stroke="#192465"></path><path d="M731.7 472L755.7 328L666 442Z" fill="#0d0d2b" stroke="#0d0d2b"></path><path d="M666 442L755.7 328L643 333Z" fill="#5656ff" stroke="#5656ff"></path><path d="M755.7 328L750.7 256L646 270Z" fill="#3641bb" stroke="#3641bb"></path><path d="M750.7 256L733.7 203L646 270Z" fill="#26328f" stroke="#26328f"></path><path d="M678 177L651 72L555.3 85Z" fill="#26328f" stroke="#26328f"></path><path d="M249.3 180L238.3 242L281 206Z" fill="#1f2b7a" stroke="#1f2b7a"></path><path d="M281 206L238.3 242L337 271Z" fill="#1f2b7a" stroke="#1f2b7a"></path><path d="M623 540L731.7 472L666 442Z" fill="#2e39a5" stroke="#2e39a5"></path><path d="M328 126L249.3 180L281 206Z" fill="#5656ff" stroke="#5656ff"></path><path d="M174.3 478L319 540L352 443Z" fill="#26328f" stroke="#26328f"></path><path d="M352 443L319 540L438.7 540Z" fill="#5656ff" stroke="#5656ff"></path><path d="M174.3 478L352 443L296 359Z" fill="#141d51" stroke="#141d51"></path><path d="M776.7 51L651 72L678 177Z" fill="#141d51" stroke="#141d51"></path><path d="M555.3 85L413.7 0L436.7 97Z" fill="#1f2b7a" stroke="#1f2b7a"></path><path d="M141.7 307L190.3 381L238.3 242Z" fill="#3641bb" stroke="#3641bb"></path><path d="M238.3 242L190.3 381L296 359Z" fill="#192465" stroke="#192465"></path><path d="M651 72L568.3 0L555.3 85Z" fill="#141d51" stroke="#141d51"></path><path d="M436.7 97L413.7 0L328 126Z" fill="#141d51" stroke="#141d51"></path><path d="M568.3 0L413.7 0L555.3 85Z" fill="#4048d1" stroke="#4048d1"></path><path d="M328 126L184.3 97L249.3 180Z" fill="#4048d1" stroke="#4048d1"></path><path d="M623 540L751.7 540L731.7 472Z" fill="#192465" stroke="#192465"></path><path d="M731.7 472L824.3 483L755.7 328Z" fill="#5656ff" stroke="#5656ff"></path><path d="M651 72L631 0L568.3 0Z" fill="#3641bb" stroke="#3641bb"></path><path d="M740.7 0L631 0L651 72Z" fill="#10163d" stroke="#10163d"></path><path d="M750.7 256L831.3 209L733.7 203Z" fill="#4048d1" stroke="#4048d1"></path><path d="M733.7 203L776.7 51L678 177Z" fill="#3641bb" stroke="#3641bb"></path><path d="M857.3 239L831.3 209L750.7 256Z" fill="#5656ff" stroke="#5656ff"></path><path d="M857.3 239L750.7 256L755.7 328Z" fill="#192465" stroke="#192465"></path><path d="M104.7 161L141.7 307L238.3 242Z" fill="#3641bb" stroke="#3641bb"></path><path d="M121.7 441L174.3 478L190.3 381Z" fill="#2e39a5" stroke="#2e39a5"></path><path d="M190.3 381L174.3 478L296 359Z" fill="#26328f" stroke="#26328f"></path><path d="M413.7 0L313 0L328 126Z" fill="#2e39a5" stroke="#2e39a5"></path><path d="M249.3 180L104.7 161L238.3 242Z" fill="#10163d" stroke="#10163d"></path><path d="M751.7 540L824.3 483L731.7 472Z" fill="#4b4fe8" stroke="#4b4fe8"></path><path d="M871.3 369L857.3 239L755.7 328Z" fill="#1f2b7a" stroke="#1f2b7a"></path><path d="M824.3 483L871.3 369L755.7 328Z" fill="#192465" stroke="#192465"></path><path d="M313 0L184.3 97L328 126Z" fill="#4b4fe8" stroke="#4b4fe8"></path><path d="M869.3 117L733.7 203L831.3 209Z" fill="#4b4fe8" stroke="#4b4fe8"></path><path d="M869.3 117L776.7 51L733.7 203Z" fill="#0d0d2b" stroke="#0d0d2b"></path><path d="M141.7 307L111.7 348L190.3 381Z" fill="#10163d" stroke="#10163d"></path><path d="M0 273L111.7 348L141.7 307Z" fill="#141d51" stroke="#141d51"></path><path d="M69.7 540L180.3 540L174.3 478Z" fill="#4b4fe8" stroke="#4b4fe8"></path><path d="M174.3 478L180.3 540L319 540Z" fill="#2e39a5" stroke="#2e39a5"></path><path d="M111.7 348L121.7 441L190.3 381Z" fill="#0d0d2b" stroke="#0d0d2b"></path><path d="M776.7 51L740.7 0L651 72Z" fill="#2e39a5" stroke="#2e39a5"></path><path d="M184.3 97L104.7 161L249.3 180Z" fill="#0d0d2b" stroke="#0d0d2b"></path><path d="M857.3 239L869.3 117L831.3 209Z" fill="#10163d" stroke="#10163d"></path><path d="M776.7 51L816.3 0L740.7 0Z" fill="#2e39a5" stroke="#2e39a5"></path><path d="M960 153L869.3 117L857.3 239Z" fill="#192465" stroke="#192465"></path><path d="M751.7 540L871.3 540L824.3 483Z" fill="#4048d1" stroke="#4048d1"></path><path d="M824.3 483L960 466L871.3 369Z" fill="#0d0d2b" stroke="#0d0d2b"></path><path d="M129.7 0L113.7 92L184.3 97Z" fill="#5656ff" stroke="#5656ff"></path><path d="M184.3 97L113.7 92L104.7 161Z" fill="#141d51" stroke="#141d51"></path><path d="M313 0L180.3 0L184.3 97Z" fill="#141d51" stroke="#141d51"></path><path d="M869.3 117L816.3 0L776.7 51Z" fill="#192465" stroke="#192465"></path><path d="M960 367L960 293L871.3 369Z" fill="#3641bb" stroke="#3641bb"></path><path d="M871.3 369L960 293L857.3 239Z" fill="#141d51" stroke="#141d51"></path><path d="M869.3 117L960 0L816.3 0Z" fill="#1f2b7a" stroke="#1f2b7a"></path><path d="M960 466L960 367L871.3 369Z" fill="#5656ff" stroke="#5656ff"></path><path d="M0 385L121.7 441L111.7 348Z" fill="#3641bb" stroke="#3641bb"></path><path d="M0 454L69.7 540L121.7 441Z" fill="#192465" stroke="#192465"></path><path d="M121.7 441L69.7 540L174.3 478Z" fill="#5656ff" stroke="#5656ff"></path><path d="M180.3 0L129.7 0L184.3 97Z" fill="#4048d1" stroke="#4048d1"></path><path d="M871.3 540L960 466L824.3 483Z" fill="#141d51" stroke="#141d51"></path><path d="M960 293L960 153L857.3 239Z" fill="#1f2b7a" stroke="#1f2b7a"></path><path d="M0 203L0 273L104.7 161Z" fill="#192465" stroke="#192465"></path><path d="M104.7 161L0 273L141.7 307Z" fill="#141d51" stroke="#141d51"></path><path d="M0 203L104.7 161L0 123Z" fill="#192465" stroke="#192465"></path><path d="M960 153L960 128L869.3 117Z" fill="#5656ff" stroke="#5656ff"></path><path d="M0 273L0 385L111.7 348Z" fill="#4048d1" stroke="#4048d1"></path><path d="M0 123L104.7 161L113.7 92Z" fill="#3641bb" stroke="#3641bb"></path><path d="M871.3 540L960 540L960 466Z" fill="#5656ff" stroke="#5656ff"></path><path d="M0 385L0 454L121.7 441Z" fill="#3641bb" stroke="#3641bb"></path><path d="M0 0L0 123L113.7 92Z" fill="#2e39a5" stroke="#2e39a5"></path><path d="M0 454L0 540L69.7 540Z" fill="#26328f" stroke="#26328f"></path><path d="M960 128L960 0L869.3 117Z" fill="#5656ff" stroke="#5656ff"></path><path d="M129.7 0L0 0L113.7 92Z" fill="#4b4fe8" stroke="#4b4fe8"></path></g></svg>