<svg width="1920" height="792" viewBox="0 0 1920 792" fill="none" xmlns="http://www.w3.org/2000/svg">
<g opacity="0.6">
<path d="M1082.6 394.533L1238 375.467L1046.6 280.133L1082.6 394.533Z" fill="#0C0C28" stroke="#0C0C28" stroke-linejoin="bevel"/>
<path d="M1238 375.467L1140.6 183.333L1046.6 280.133L1238 375.467Z" fill="#0D0D2B" stroke="#0D0D2B" stroke-linejoin="bevel"/>
<path d="M1238 375.467L1356 293.333L1140.6 183.333L1238 375.467Z" fill="#0B0B21" stroke="#0B0B21" stroke-linejoin="bevel"/>
<path d="M905.4 526.533L1048.6 513.333L1082.6 394.533L905.4 526.533Z" fill="#0C0C26" stroke="#0C0C26" stroke-linejoin="bevel"/>
<path d="M1082.6 394.533L1048.6 513.333L1238 375.467L1082.6 394.533Z" fill="#0D0D2B" stroke="#0D0D2B" stroke-linejoin="bevel"/>
<path d="M1238 375.467L1415.4 379.867L1356 293.333L1238 375.467Z" fill="#0D0D2B" stroke="#0D0D2B" stroke-linejoin="bevel"/>
<path d="M1296 536.8L1415.4 379.867L1238 375.467L1296 536.8Z" fill="#0C0C25" stroke="#0C0C25" stroke-linejoin="bevel"/>
<path d="M1477.4 110L1298 124.667L1356 293.333L1477.4 110Z" fill="#0D0D2B" stroke="#0D0D2B" stroke-linejoin="bevel"/>
<path d="M1356 293.333L1298 124.667L1140.6 183.333L1356 293.333Z" fill="#0A0A1F" stroke="#0A0A1F" stroke-linejoin="bevel"/>
<path d="M1048.6 513.333L1296 536.8L1238 375.467L1048.6 513.333Z" fill="#0A0A1E" stroke="#0A0A1E" stroke-linejoin="bevel"/>
<path d="M1140.6 183.333L847.4 181.867L1046.6 280.133L1140.6 183.333Z" fill="#0C0C28" stroke="#0C0C28" stroke-linejoin="bevel"/>
<path d="M783.4 374L905.4 526.533L1082.6 394.533L783.4 374Z" fill="#0D0D29" stroke="#0D0D29" stroke-linejoin="bevel"/>
<path d="M1046.6 0L847.4 181.867L1140.6 183.333L1046.6 0Z" fill="#0A0A1E" stroke="#0A0A1E" stroke-linejoin="bevel"/>
<path d="M783.4 374L1082.6 394.533L1046.6 280.133L783.4 374Z" fill="#0A0A1F" stroke="#0A0A1F" stroke-linejoin="bevel"/>
<path d="M1048.6 513.333L1204 652.667L1296 536.8L1048.6 513.333Z" fill="#0B0B22" stroke="#0B0B22" stroke-linejoin="bevel"/>
<path d="M781.4 227.333L783.4 374L1046.6 280.133L781.4 227.333Z" fill="#0B0B21" stroke="#0B0B21" stroke-linejoin="bevel"/>
<path d="M847.4 181.867L781.4 227.333L1046.6 280.133L847.4 181.867Z" fill="#0C0C26" stroke="#0C0C26" stroke-linejoin="bevel"/>
<path d="M1517.4 511.867L1553.4 303.6L1415.4 379.867L1517.4 511.867Z" fill="#0A0A1E" stroke="#0A0A1E" stroke-linejoin="bevel"/>
<path d="M1415.4 379.867L1553.4 303.6L1356 293.333L1415.4 379.867Z" fill="#0C0C28" stroke="#0C0C28" stroke-linejoin="bevel"/>
<path d="M905.4 526.533L1024.6 610.133L1048.6 513.333L905.4 526.533Z" fill="#0C0C24" stroke="#0C0C24" stroke-linejoin="bevel"/>
<path d="M781.4 227.333L712 284.533L783.4 374L781.4 227.333Z" fill="#0B0B22" stroke="#0B0B22" stroke-linejoin="bevel"/>
<path d="M1553.4 303.6L1477.4 110L1356 293.333L1553.4 303.6Z" fill="#0C0C25" stroke="#0C0C25" stroke-linejoin="bevel"/>
<path d="M1547.4 618.933L1517.4 511.867L1296 536.8L1547.4 618.933Z" fill="#0D0D29" stroke="#0D0D29" stroke-linejoin="bevel"/>
<path d="M1296 536.8L1517.4 511.867L1415.4 379.867L1296 536.8Z" fill="#0A0A1F" stroke="#0A0A1F" stroke-linejoin="bevel"/>
<path d="M1270 0L1140.6 183.333L1298 124.667L1270 0Z" fill="#0D0D2B" stroke="#0D0D2B" stroke-linejoin="bevel"/>
<path d="M1270 0H1046.6L1140.6 183.333L1270 0Z" fill="#0D0D2B" stroke="#0D0D2B" stroke-linejoin="bevel"/>
<path d="M847.4 181.867L710 123.2L781.4 227.333L847.4 181.867Z" fill="#0A0A1E" stroke="#0A0A1E" stroke-linejoin="bevel"/>
<path d="M781.4 227.333L710 123.2L712 284.533L781.4 227.333Z" fill="#0D0D2B" stroke="#0D0D2B" stroke-linejoin="bevel"/>
<path d="M1024.6 610.133L1204 652.667L1048.6 513.333L1024.6 610.133Z" fill="#0C0C28" stroke="#0C0C28" stroke-linejoin="bevel"/>
<path d="M1435.4 0H1270L1298 124.667L1435.4 0Z" fill="#0B0B22" stroke="#0B0B22" stroke-linejoin="bevel"/>
<path d="M712 284.533L684 451.733L783.4 374L712 284.533Z" fill="#0D0D29" stroke="#0D0D29" stroke-linejoin="bevel"/>
<path d="M783.4 374L684 451.733L905.4 526.533L783.4 374Z" fill="#0A0A1F" stroke="#0A0A1F" stroke-linejoin="bevel"/>
<path d="M905.4 526.533L779.4 621.867L1024.6 610.133L905.4 526.533Z" fill="#0C0C25" stroke="#0C0C25" stroke-linejoin="bevel"/>
<path d="M869.4 0L710 123.2L847.4 181.867L869.4 0Z" fill="#0A0A1F" stroke="#0A0A1F" stroke-linejoin="bevel"/>
<path d="M442.6 520.667L642 533.867L684 451.733L442.6 520.667Z" fill="#0D0D29" stroke="#0D0D29" stroke-linejoin="bevel"/>
<path d="M1046.6 0H869.4L847.4 181.867L1046.6 0Z" fill="#0D0D2B" stroke="#0D0D2B" stroke-linejoin="bevel"/>
<path d="M1634.6 0H1435.4L1477.4 110L1634.6 0Z" fill="#0A0A1E" stroke="#0A0A1E" stroke-linejoin="bevel"/>
<path d="M1477.4 110L1435.4 0L1298 124.667L1477.4 110Z" fill="#0B0B22" stroke="#0B0B22" stroke-linejoin="bevel"/>
<path d="M1740.6 371.067L1668.6 230.267L1553.4 303.6L1740.6 371.067Z" fill="#0B0B22" stroke="#0B0B22" stroke-linejoin="bevel"/>
<path d="M1553.4 303.6L1668.6 230.267L1477.4 110L1553.4 303.6Z" fill="#0B0B22" stroke="#0B0B22" stroke-linejoin="bevel"/>
<path d="M642 533.867L779.4 621.867L905.4 526.533L642 533.867Z" fill="#0D0D2B" stroke="#0D0D2B" stroke-linejoin="bevel"/>
<path d="M1024.6 610.133L1104.6 792L1204 652.667L1024.6 610.133Z" fill="#0A0A1E" stroke="#0A0A1E" stroke-linejoin="bevel"/>
<path d="M1204 652.667L1547.4 618.933L1296 536.8L1204 652.667Z" fill="#0A0A1E" stroke="#0A0A1E" stroke-linejoin="bevel"/>
<path d="M1517.4 511.867L1700.6 486.933L1553.4 303.6L1517.4 511.867Z" fill="#0C0C28" stroke="#0C0C28" stroke-linejoin="bevel"/>
<path d="M400.6 264L684 451.733L712 284.533L400.6 264Z" fill="#0C0C25" stroke="#0C0C25" stroke-linejoin="bevel"/>
<path d="M684 451.733L642 533.867L905.4 526.533L684 451.733Z" fill="#0C0C24" stroke="#0C0C24" stroke-linejoin="bevel"/>
<path d="M1547.4 618.933L1700.6 486.933L1517.4 511.867L1547.4 618.933Z" fill="#0C0C28" stroke="#0C0C28" stroke-linejoin="bevel"/>
<path d="M1700.6 486.933L1740.6 371.067L1553.4 303.6L1700.6 486.933Z" fill="#0D0D29" stroke="#0D0D29" stroke-linejoin="bevel"/>
<path d="M869.4 792H1104.6L1024.6 610.133L869.4 792Z" fill="#0D0D2C" stroke="#0D0D2C" stroke-linejoin="bevel"/>
<path d="M1204 652.667L1354 792L1547.4 618.933L1204 652.667Z" fill="#0C0C24" stroke="#0C0C24" stroke-linejoin="bevel"/>
<path d="M642 533.867L634 607.2L779.4 621.867L642 533.867Z" fill="#0A0A1F" stroke="#0A0A1F" stroke-linejoin="bevel"/>
<path d="M779.4 621.867L869.4 792L1024.6 610.133L779.4 621.867Z" fill="#0C0C25" stroke="#0C0C25" stroke-linejoin="bevel"/>
<path d="M1668.6 230.267L1704.6 80.6667L1477.4 110L1668.6 230.267Z" fill="#0D0D29" stroke="#0D0D29" stroke-linejoin="bevel"/>
<path d="M1920 134.933L1704.6 80.6667L1668.6 230.267L1920 134.933Z" fill="#0D0D29" stroke="#0D0D29" stroke-linejoin="bevel"/>
<path d="M869.4 0H660L710 123.2L869.4 0Z" fill="#0C0C24" stroke="#0C0C24" stroke-linejoin="bevel"/>
<path d="M710 123.2L400.6 264L712 284.533L710 123.2Z" fill="#0C0C28" stroke="#0C0C28" stroke-linejoin="bevel"/>
<path d="M642 533.867L442.6 520.667L634 607.2L642 533.867Z" fill="#0B0B22" stroke="#0B0B22" stroke-linejoin="bevel"/>
<path d="M1704.6 80.6667L1634.6 0L1477.4 110L1704.6 80.6667Z" fill="#0D0D2B" stroke="#0D0D2B" stroke-linejoin="bevel"/>
<path d="M1104.6 792H1354L1204 652.667L1104.6 792Z" fill="#0C0C24" stroke="#0C0C24" stroke-linejoin="bevel"/>
<path d="M1920 580.8V419.467L1700.6 486.933L1920 580.8Z" fill="#0C0C26" stroke="#0C0C26" stroke-linejoin="bevel"/>
<path d="M664 792H869.4L779.4 621.867L664 792Z" fill="#0D0D29" stroke="#0D0D29" stroke-linejoin="bevel"/>
<path d="M1354 792H1427.4L1547.4 618.933L1354 792Z" fill="#0D0D29" stroke="#0D0D29" stroke-linejoin="bevel"/>
<path d="M390.6 158.4L400.6 264L710 123.2L390.6 158.4Z" fill="#0D0D2C" stroke="#0D0D2C" stroke-linejoin="bevel"/>
<path d="M370.6 425.333L442.6 520.667L684 451.733L370.6 425.333Z" fill="#0D0D29" stroke="#0D0D29" stroke-linejoin="bevel"/>
<path d="M634 607.2L664 792L779.4 621.867L634 607.2Z" fill="#0D0D2B" stroke="#0D0D2B" stroke-linejoin="bevel"/>
<path d="M1700.6 486.933L1920 419.467L1740.6 371.067L1700.6 486.933Z" fill="#0D0D29" stroke="#0D0D29" stroke-linejoin="bevel"/>
<path d="M1740.6 371.067L1920 225.867L1668.6 230.267L1740.6 371.067Z" fill="#0C0C24" stroke="#0C0C24" stroke-linejoin="bevel"/>
<path d="M1782.6 717.2L1700.6 486.933L1547.4 618.933L1782.6 717.2Z" fill="#0D0D2B" stroke="#0D0D2B" stroke-linejoin="bevel"/>
<path d="M1920 419.467V225.867L1740.6 371.067L1920 419.467Z" fill="#0D0D2C" stroke="#0D0D2C" stroke-linejoin="bevel"/>
<path d="M1704.6 80.6667L1920 0H1634.6L1704.6 80.6667Z" fill="#0D0D2C" stroke="#0D0D2C" stroke-linejoin="bevel"/>
<path d="M400.6 264L370.6 425.333L684 451.733L400.6 264Z" fill="#0D0D29" stroke="#0D0D29" stroke-linejoin="bevel"/>
<path d="M660 0L390.6 158.4L710 123.2L660 0Z" fill="#0C0C24" stroke="#0C0C24" stroke-linejoin="bevel"/>
<path d="M400.6 264L279.4 410.667L370.6 425.333L400.6 264Z" fill="#0B0B21" stroke="#0B0B21" stroke-linejoin="bevel"/>
<path d="M420.6 705.467L664 792L634 607.2L420.6 705.467Z" fill="#0D0D2C" stroke="#0D0D2C" stroke-linejoin="bevel"/>
<path d="M1920 225.867V134.933L1668.6 230.267L1920 225.867Z" fill="#0B0B21" stroke="#0B0B21" stroke-linejoin="bevel"/>
<path d="M1712.6 792L1782.6 717.2L1547.4 618.933L1712.6 792Z" fill="#0B0B22" stroke="#0B0B22" stroke-linejoin="bevel"/>
<path d="M1782.6 717.2L1920 580.8L1700.6 486.933L1782.6 717.2Z" fill="#0D0D2B" stroke="#0D0D2B" stroke-linejoin="bevel"/>
<path d="M1427.4 792H1712.6L1547.4 618.933L1427.4 792Z" fill="#0C0C26" stroke="#0C0C26" stroke-linejoin="bevel"/>
<path d="M1782.6 717.2L1920 693.733V580.8L1782.6 717.2Z" fill="#0D0D29" stroke="#0D0D29" stroke-linejoin="bevel"/>
<path d="M370.6 425.333L187.4 525.067L442.6 520.667L370.6 425.333Z" fill="#0C0C24" stroke="#0C0C24" stroke-linejoin="bevel"/>
<path d="M442.6 520.667L420.6 705.467L634 607.2L442.6 520.667Z" fill="#0C0C24" stroke="#0C0C24" stroke-linejoin="bevel"/>
<path d="M175.4 312.4L279.4 410.667L400.6 264L175.4 312.4Z" fill="#0A0A1F" stroke="#0A0A1F" stroke-linejoin="bevel"/>
<path d="M1920 134.933V0L1704.6 80.6667L1920 134.933Z" fill="#0C0C28" stroke="#0C0C28" stroke-linejoin="bevel"/>
<path d="M660 0H370.6L390.6 158.4L660 0Z" fill="#0B0B21" stroke="#0B0B21" stroke-linejoin="bevel"/>
<path d="M390.6 158.4L219.4 112.933L400.6 264L390.6 158.4Z" fill="#0C0C26" stroke="#0C0C26" stroke-linejoin="bevel"/>
<path d="M187.4 525.067L420.6 705.467L442.6 520.667L187.4 525.067Z" fill="#0B0B21" stroke="#0B0B21" stroke-linejoin="bevel"/>
<path d="M1920 792V693.733L1782.6 717.2L1920 792Z" fill="#0C0C28" stroke="#0C0C28" stroke-linejoin="bevel"/>
<path d="M420.6 705.467L440.6 792H664L420.6 705.467Z" fill="#0D0D29" stroke="#0D0D29" stroke-linejoin="bevel"/>
<path d="M257.4 792H440.6L420.6 705.467L257.4 792Z" fill="#0D0D2C" stroke="#0D0D2C" stroke-linejoin="bevel"/>
<path d="M370.6 0L219.4 112.933L390.6 158.4L370.6 0Z" fill="#0C0C24" stroke="#0C0C24" stroke-linejoin="bevel"/>
<path d="M219.4 112.933L175.4 312.4L400.6 264L219.4 112.933Z" fill="#0C0C25" stroke="#0C0C25" stroke-linejoin="bevel"/>
<path d="M279.4 410.667L187.4 525.067L370.6 425.333L279.4 410.667Z" fill="#0D0D29" stroke="#0D0D29" stroke-linejoin="bevel"/>
<path d="M0 368.133L187.4 525.067L279.4 410.667L0 368.133Z" fill="#0D0D2C" stroke="#0D0D2C" stroke-linejoin="bevel"/>
<path d="M1712.6 792H1920L1782.6 717.2L1712.6 792Z" fill="#0C0C28" stroke="#0C0C28" stroke-linejoin="bevel"/>
<path d="M0 176V319.733L175.4 312.4L0 176Z" fill="#0B0B22" stroke="#0B0B22" stroke-linejoin="bevel"/>
<path d="M370.6 0H211.4L219.4 112.933L370.6 0Z" fill="#0A0A1E" stroke="#0A0A1E" stroke-linejoin="bevel"/>
<path d="M179.4 704L257.4 792L420.6 705.467L179.4 704Z" fill="#0A0A1E" stroke="#0A0A1E" stroke-linejoin="bevel"/>
<path d="M0 545.6L179.4 704L187.4 525.067L0 545.6Z" fill="#0A0A1F" stroke="#0A0A1F" stroke-linejoin="bevel"/>
<path d="M187.4 525.067L179.4 704L420.6 705.467L187.4 525.067Z" fill="#0C0C25" stroke="#0C0C25" stroke-linejoin="bevel"/>
<path d="M0 176L175.4 312.4L219.4 112.933L0 176Z" fill="#0A0A1F" stroke="#0A0A1F" stroke-linejoin="bevel"/>
<path d="M175.4 312.4L0 368.133L279.4 410.667L175.4 312.4Z" fill="#0C0C26" stroke="#0C0C26" stroke-linejoin="bevel"/>
<path d="M0 319.733V368.133L175.4 312.4L0 319.733Z" fill="#0D0D2C" stroke="#0D0D2C" stroke-linejoin="bevel"/>
<path d="M0 0V176L219.4 112.933L0 0Z" fill="#0A0A1F" stroke="#0A0A1F" stroke-linejoin="bevel"/>
<path d="M0 368.133V545.6L187.4 525.067L0 368.133Z" fill="#0C0C24" stroke="#0C0C24" stroke-linejoin="bevel"/>
<path d="M179.4 704L0 792H257.4L179.4 704Z" fill="#0B0B21" stroke="#0B0B21" stroke-linejoin="bevel"/>
<path d="M211.4 0H0L219.4 112.933L211.4 0Z" fill="#0C0C24" stroke="#0C0C24" stroke-linejoin="bevel"/>
<path d="M0 545.6V701.067L179.4 704L0 545.6Z" fill="#0A0A1E" stroke="#0A0A1E" stroke-linejoin="bevel"/>
<path d="M0 701.067V792L179.4 704L0 701.067Z" fill="#0C0C25" stroke="#0C0C25" stroke-linejoin="bevel"/>
</g>
</svg>
