<svg id="visual" viewBox="0 0 960 540" width="960" height="540" xmlns="http://www.w3.org/2000/svg" xmlns:xlink="http://www.w3.org/1999/xlink" version="1.1"><rect x="0" y="0" width="960" height="540" fill="#0A0A1E"></rect><path d="M0 368L137 361L274 400L411 384L549 345L686 371L823 403L960 377L960 541L823 541L686 541L549 541L411 541L274 541L137 541L0 541Z" fill="#715df2"></path><path d="M0 391L137 380L274 413L411 431L549 374L686 400L823 385L960 367L960 541L823 541L686 541L549 541L411 541L274 541L137 541L0 541Z" fill="#4b4ab9"></path><path d="M0 439L137 396L274 447L411 424L549 427L686 395L823 418L960 455L960 541L823 541L686 541L549 541L411 541L274 541L137 541L0 541Z" fill="#2e3682"></path><path d="M0 473L137 459L274 445L411 438L549 480L686 433L823 441L960 468L960 541L823 541L686 541L549 541L411 541L274 541L137 541L0 541Z" fill="#19224e"></path><path d="M0 495L137 496L274 490L411 507L549 496L686 476L823 516L960 502L960 541L823 541L686 541L549 541L411 541L274 541L137 541L0 541Z" fill="#0a0a1e"></path></svg>