<svg id="visual" viewBox="0 0 960 540" width="960" height="540" xmlns="http://www.w3.org/2000/svg" xmlns:xlink="http://www.w3.org/1999/xlink" version="1.1"><path d="M0 71L192 98L384 50L576 109L768 87L960 93L960 0L768 0L576 0L384 0L192 0L0 0Z" fill="#11153b"></path><path d="M0 212L192 206L384 190L576 195L768 239L960 168L960 91L768 85L576 107L384 48L192 96L0 69Z" fill="#0f1335"></path><path d="M0 341L192 298L384 260L576 314L768 368L960 287L960 166L768 237L576 193L384 188L192 204L0 210Z" fill="#0e1130"></path><path d="M0 476L192 476L384 455L576 503L768 487L960 471L960 285L768 366L576 312L384 258L192 296L0 339Z" fill="#0d0f2a"></path><path d="M0 541L192 541L384 541L576 541L768 541L960 541L960 469L768 485L576 501L384 453L192 474L0 474Z" fill="#0c0c25"></path></svg>