<svg id="visual" viewBox="0 0 960 540" width="960" height="540" xmlns="http://www.w3.org/2000/svg" xmlns:xlink="http://www.w3.org/1999/xlink" version="1.1"><path d="M0 195L22.8 183.3C45.7 171.7 91.3 148.3 137 151.2C182.7 154 228.3 183 274 181.2C319.7 179.3 365.3 146.7 411.2 145.7C457 144.7 503 175.3 548.8 172.7C594.7 170 640.3 134 686 125C731.7 116 777.3 134 823 135.8C868.7 137.7 914.3 123.3 937.2 116.2L960 109L960 0L937.2 0C914.3 0 868.7 0 823 0C777.3 0 731.7 0 686 0C640.3 0 594.7 0 548.8 0C503 0 457 0 411.2 0C365.3 0 319.7 0 274 0C228.3 0 182.7 0 137 0C91.3 0 45.7 0 22.8 0L0 0Z" fill="#0f102f"></path><path d="M0 303L22.8 297.7C45.7 292.3 91.3 281.7 137 286.2C182.7 290.7 228.3 310.3 274 309.5C319.7 308.7 365.3 287.3 411.2 283.8C457 280.3 503 294.7 548.8 291.8C594.7 289 640.3 269 686 259C731.7 249 777.3 249 823 256.3C868.7 263.7 914.3 278.3 937.2 285.7L960 293L960 107L937.2 114.2C914.3 121.3 868.7 135.7 823 133.8C777.3 132 731.7 114 686 123C640.3 132 594.7 168 548.8 170.7C503 173.3 457 142.7 411.2 143.7C365.3 144.7 319.7 177.3 274 179.2C228.3 181 182.7 152 137 149.2C91.3 146.3 45.7 169.7 22.8 181.3L0 193Z" fill="#101135"></path><path d="M0 352L22.8 348.3C45.7 344.7 91.3 337.3 137 341.8C182.7 346.3 228.3 362.7 274 360C319.7 357.3 365.3 335.7 411.2 332C457 328.3 503 342.7 548.8 342.7C594.7 342.7 640.3 328.3 686 321.2C731.7 314 777.3 314 823 320.3C868.7 326.7 914.3 339.3 937.2 345.7L960 352L960 291L937.2 283.7C914.3 276.3 868.7 261.7 823 254.3C777.3 247 731.7 247 686 257C640.3 267 594.7 287 548.8 289.8C503 292.7 457 278.3 411.2 281.8C365.3 285.3 319.7 306.7 274 307.5C228.3 308.3 182.7 288.7 137 284.2C91.3 279.7 45.7 290.3 22.8 295.7L0 301Z" fill="#11123b"></path><path d="M0 433L22.8 433C45.7 433 91.3 433 137 435.7C182.7 438.3 228.3 443.7 274 440C319.7 436.3 365.3 423.7 411.2 419.2C457 414.7 503 418.3 548.8 418.3C594.7 418.3 640.3 414.7 686 414.7C731.7 414.7 777.3 418.3 823 424.7C868.7 431 914.3 440 937.2 444.5L960 449L960 350L937.2 343.7C914.3 337.3 868.7 324.7 823 318.3C777.3 312 731.7 312 686 319.2C640.3 326.3 594.7 340.7 548.8 340.7C503 340.7 457 326.3 411.2 330C365.3 333.7 319.7 355.3 274 358C228.3 360.7 182.7 344.3 137 339.8C91.3 335.3 45.7 342.7 22.8 346.3L0 350Z" fill="#171747"></path><path d="M0 482L22.8 484.7C45.7 487.3 91.3 492.7 137 494.3C182.7 496 228.3 494 274 486.8C319.7 479.7 365.3 467.3 411.2 467.3C457 467.3 503 479.7 548.8 483.2C594.7 486.7 640.3 481.3 686 476.8C731.7 472.3 777.3 468.7 823 471.3C868.7 474 914.3 483 937.2 487.5L960 492L960 447L937.2 442.5C914.3 438 868.7 429 823 422.7C777.3 416.3 731.7 412.7 686 412.7C640.3 412.7 594.7 416.3 548.8 416.3C503 416.3 457 412.7 411.2 417.2C365.3 421.7 319.7 434.3 274 438C228.3 441.7 182.7 436.3 137 433.7C91.3 431 45.7 431 22.8 431L0 431Z" fill="#212159"></path><path d="M0 541L22.8 541C45.7 541 91.3 541 137 541C182.7 541 228.3 541 274 541C319.7 541 365.3 541 411.2 541C457 541 503 541 548.8 541C594.7 541 640.3 541 686 541C731.7 541 777.3 541 823 541C868.7 541 914.3 541 937.2 541L960 541L960 490L937.2 485.5C914.3 481 868.7 472 823 469.3C777.3 466.7 731.7 470.3 686 474.8C640.3 479.3 594.7 484.7 548.8 481.2C503 477.7 457 465.3 411.2 465.3C365.3 465.3 319.7 477.7 274 484.8C228.3 492 182.7 494 137 492.3C91.3 490.7 45.7 485.3 22.8 482.7L0 480Z" fill="#2c2b6c"></path></svg>